{"asset":{"version":"2.0","generator":"babylon.js glTF exporter for 3ds max 2019 v1.3.33"},"scene":0,"scenes":[{"nodes":[0,1,2,3],"extensions":{}}],"nodes":[{"mesh":0,"translation":[87.71846,257.847321,-2156.639],"rotation":[0.0,0.0,0.0,1.0],"scale":[1.32895,1.32895,1.32895],"name":"a_dating_231"},{"mesh":1,"translation":[68.26025,352.59906,-2153.98584],"rotation":[0.0,0.0,0.0,1.0],"scale":[1.32895,1.32895,1.32895],"name":"a_dating_238"},{"mesh":2,"translation":[69.03131,85.086,-2152.53418],"rotation":[0.0,0.0,0.0,1.0],"scale":[1.32895,1.32895,1.32895],"name":"a_dating_245"},{"translation":[0.0,0.0,0.0],"rotation":[0.0,0.0,0.0,1.0],"scale":[1.0,1.0,1.0],"name":"Default light"}],"meshes":[{"primitives":[{"attributes":{"POSITION":1,"NORMAL":2,"TEXCOORD_0":3},"indices":0,"mode":4,"material":0}],"name":"a_dating_231"},{"primitives":[{"attributes":{"POSITION":5,"NORMAL":6,"TEXCOORD_0":7},"indices":4,"mode":4,"material":1}],"name":"a_dating_238"},{"primitives":[{"attributes":{"POSITION":9,"NORMAL":10,"TEXCOORD_0":11},"indices":8,"mode":4,"material":2}],"name":"a_dating_245"}],"accessors":[{"bufferView":0,"componentType":5123,"count":31446,"type":"SCALAR","name":"accessorIndices"},{"bufferView":1,"componentType":5126,"count":7532,"max":[54.6202621,128.012375,47.07373],"min":[-54.62026,-128.012375,-47.0734863],"type":"VEC3","name":"accessorPositions"},{"bufferView":1,"byteOffset":90384,"componentType":5126,"count":7532,"type":"VEC3","name":"accessorNormals"},{"bufferView":2,"componentType":5126,"count":7532,"type":"VEC2","name":"accessorUVs"},{"bufferView":0,"byteOffset":62892,"componentType":5123,"count":32319,"type":"SCALAR","name":"accessorIndices"},{"bufferView":1,"byteOffset":180768,"componentType":5126,"count":7986,"max":[62.6481972,103.427094,39.2313232],"min":[-62.64819,-103.427094,-39.23108],"type":"VEC3","name":"accessorPositions"},{"bufferView":1,"byteOffset":276600,"componentType":5126,"count":7986,"type":"VEC3","name":"accessorNormals"},{"bufferView":2,"byteOffset":60256,"componentType":5126,"count":7986,"type":"VEC2","name":"accessorUVs"},{"bufferView":0,"byteOffset":127532,"componentType":5123,"count":27399,"type":"SCALAR","name":"accessorIndices"},{"bufferView":1,"byteOffset":372432,"componentType":5126,"count":6678,"max":[71.56003,64.19708,71.46655],"min":[-71.56004,-64.19702,-71.4666748],"type":"VEC3","name":"accessorPositions"},{"bufferView":1,"byteOffset":452568,"componentType":5126,"count":6678,"type":"VEC3","name":"accessorNormals"},{"bufferView":2,"byteOffset":124144,"componentType":5126,"count":6678,"type":"VEC2","name":"accessorUVs"}],"bufferViews":[{"buffer":0,"byteLength":182332,"name":"bufferViewScalar"},{"buffer":0,"byteOffset":182332,"byteLength":532704,"byteStride":12,"name":"bufferViewFloatVec3"},{"buffer":0,"byteOffset":715036,"byteLength":177568,"byteStride":8,"name":"bufferViewFloatVec2"}],"buffers":[{"uri":"毛泽东.bin","byteLength":892604}],"materials":[{"pbrMetallicRoughness":{"baseColorFactor":[1.0,1.0,1.0,1.0],"baseColorTexture":{"index":0,"texCoord":0},"metallicFactor":0.0,"roughnessFactor":0.9},"emissiveFactor":[0.0,0.0,0.0],"alphaMode":"OPAQUE","name":"a_dating_231"},{"pbrMetallicRoughness":{"baseColorFactor":[1.0,1.0,1.0,1.0],"baseColorTexture":{"index":1,"texCoord":0},"metallicFactor":0.0,"roughnessFactor":0.9},"emissiveFactor":[0.0,0.0,0.0],"alphaMode":"OPAQUE","name":"a_dating_238"},{"pbrMetallicRoughness":{"baseColorFactor":[1.0,1.0,1.0,1.0],"baseColorTexture":{"index":2,"texCoord":0},"metallicFactor":0.0,"roughnessFactor":0.9},"emissiveFactor":[0.0,0.0,0.0],"alphaMode":"OPAQUE","name":"a_dating_245"}],"textures":[{"sampler":0,"source":0,"name":"a_dating_231灯光贴图.jpg"},{"sampler":0,"source":1,"name":"a_dating_238灯光贴图.jpg"},{"sampler":0,"source":2,"name":"a_dating_245灯光贴图.jpg"}],"images":[{"uri":"a_dating_231%E7%81%AF%E5%85%89%E8%B4%B4%E5%9B%BE.jpg"},{"uri":"a_dating_238%E7%81%AF%E5%85%89%E8%B4%B4%E5%9B%BE.jpg"},{"uri":"a_dating_245%E7%81%AF%E5%85%89%E8%B4%B4%E5%9B%BE.jpg"}],"samplers":[{"magFilter":9729,"minFilter":9987,"wrapS":10497,"wrapT":10497}]}