{
  "accessors": [
    {
      "bufferView": 2,
      "componentType": 5126,
      "count": 324,
      "max": [
        2.6096789836883545,
        1.1626451015472412,
        2.0292887687683105
      ],
      "min": [
        -7.5184822082519531,
        -1.1626451015472412,
        -2.6156878471374512
      ],
      "type": "VEC3"
    },
    {
      "bufferView": 2,
      "byteOffset": 3888,
      "componentType": 5126,
      "count": 324,
      "max": [
        0.99999749660491943,
        1,
        1
      ],
      "min": [
        -0.99993330240249634,
        -1,
        -1
      ],
      "type": "VEC3"
    },
    {
      "bufferView": 3,
      "componentType": 5126,
      "count": 324,
      "max": [
        0.99999940395355225,
        0.9999767541885376,
        1,
        1
      ],
      "min": [
        -1,
        -1,
        -0.9999997615814209,
        1
      ],
      "type": "VEC4"
    },
    {
      "bufferView": 1,
      "componentType": 5126,
      "count": 324,
      "max": [
        0.91867649555206299,
        0.82608979940414429
      ],
      "min": [
        0.0074883103370666504,
        0.0079693319275975227
      ],
      "type": "VEC2"
    },
    {
      "bufferView": 1,
      "byteOffset": 2592,
      "componentType": 5126,
      "count": 324,
      "max": [
        0.91867649555206299,
        0.82608979940414429
      ],
      "min": [
        0.0074883103370666504,
        0.0079693319275975227
      ],
      "type": "VEC2"
    },
    {
      "bufferView": 0,
      "componentType": 5125,
      "count": 1008,
      "max": [
        323
      ],
      "min": [
        0
      ],
      "type": "SCALAR"
    },
    {
      "bufferView": 2,
      "byteOffset": 7776,
      "componentType": 5126,
      "count": 304,
      "max": [
        2.0353100299835205,
        1.9439160823822021,
        1.0840904712677002
      ],
      "min": [
        -6.2843952178955078,
        -1.9439160823822021,
        -7.4413714408874512
      ],
      "type": "VEC3"
    },
    {
      "bufferView": 2,
      "byteOffset": 11424,
      "componentType": 5126,
      "count": 304,
      "max": [
        1,
        1,
        1
      ],
      "min": [
        -1,
        -1,
        -1
      ],
      "type": "VEC3"
    },
    {
      "bufferView": 3,
      "byteOffset": 5184,
      "componentType": 5126,
      "count": 304,
      "max": [
        0.35835343599319458,
        1,
        1,
        1
      ],
      "min": [
        -0.4111936092376709,
        -1,
        -1,
        -1
      ],
      "type": "VEC4"
    },
    {
      "bufferView": 1,
      "byteOffset": 5184,
      "componentType": 5126,
      "count": 304,
      "max": [
        0.988941490650177,
        0.98833596706390381
      ],
      "min": [
        -0.36338514089584351,
        0.22293847799301147
      ],
      "type": "VEC2"
    },
    {
      "bufferView": 1,
      "byteOffset": 7616,
      "componentType": 5126,
      "count": 304,
      "max": [
        0.988941490650177,
        0.98833596706390381
      ],
      "min": [
        -0.36338514089584351,
        0.22293847799301147
      ],
      "type": "VEC2"
    },
    {
      "bufferView": 0,
      "byteOffset": 4032,
      "componentType": 5125,
      "count": 912,
      "max": [
        303
      ],
      "min": [
        0
      ],
      "type": "SCALAR"
    },
    {
      "bufferView": 2,
      "byteOffset": 15072,
      "componentType": 5126,
      "count": 915,
      "max": [
        2.0234887599945068,
        1.9058971405029297,
        8.1775636672973633
      ],
      "min": [
        -6.1298666000366211,
        -1.9067124128341675,
        -25.052289962768555
      ],
      "type": "VEC3"
    },
    {
      "bufferView": 2,
      "byteOffset": 26052,
      "componentType": 5126,
      "count": 915,
      "max": [
        1,
        1,
        1
      ],
      "min": [
        -1,
        -1,
        -1
      ],
      "type": "VEC3"
    },
    {
      "bufferView": 3,
      "byteOffset": 10048,
      "componentType": 5126,
      "count": 915,
      "max": [
        1,
        1,
        1,
        1
      ],
      "min": [
        -0.99991828203201294,
        -1,
        -0.99999994039535522,
        -1
      ],
      "type": "VEC4"
    },
    {
      "bufferView": 1,
      "byteOffset": 10048,
      "componentType": 5126,
      "count": 915,
      "max": [
        0.99223423004150391,
        0.94251114130020142
      ],
      "min": [
        -0.88175684213638306,
        0.0079693198204040527
      ],
      "type": "VEC2"
    },
    {
      "bufferView": 1,
      "byteOffset": 17368,
      "componentType": 5126,
      "count": 915,
      "max": [
        0.99223423004150391,
        0.94251114130020142
      ],
      "min": [
        -0.88175684213638306,
        0.0079693198204040527
      ],
      "type": "VEC2"
    },
    {
      "bufferView": 0,
      "byteOffset": 7680,
      "componentType": 5125,
      "count": 3510,
      "max": [
        914
      ],
      "min": [
        0
      ],
      "type": "SCALAR"
    },
    {
      "bufferView": 2,
      "byteOffset": 37032,
      "componentType": 5126,
      "count": 222,
      "max": [
        1.9681622982025146,
        1.0107283592224121,
        3.5548539161682129
      ],
      "min": [
        -2.0870354175567627,
        -1.0107283592224121,
        -10.02506160736084
      ],
      "type": "VEC3"
    },
    {
      "bufferView": 2,
      "byteOffset": 39696,
      "componentType": 5126,
      "count": 222,
      "max": [
        1,
        1,
        1
      ],
      "min": [
        -0.99999779462814331,
        -1,
        -0.99845969676971436
      ],
      "type": "VEC3"
    },
    {
      "bufferView": 3,
      "byteOffset": 24688,
      "componentType": 5126,
      "count": 222,
      "max": [
        1,
        1,
        1,
        1
      ],
      "min": [
        -1,
        -1,
        -1,
        1
      ],
      "type": "VEC4"
    },
    {
      "bufferView": 1,
      "byteOffset": 24688,
      "componentType": 5126,
      "count": 222,
      "max": [
        0.89816808700561523,
        0.95723038911819458
      ],
      "min": [
        0.0074883103370666504,
        0.1803521066904068
      ],
      "type": "VEC2"
    },
    {
      "bufferView": 1,
      "byteOffset": 26464,
      "componentType": 5126,
      "count": 222,
      "max": [
        0.89816808700561523,
        0.95723038911819458
      ],
      "min": [
        0.0074883103370666504,
        0.1803521066904068
      ],
      "type": "VEC2"
    },
    {
      "bufferView": 0,
      "byteOffset": 21720,
      "componentType": 5125,
      "count": 618,
      "max": [
        221
      ],
      "min": [
        0
      ],
      "type": "SCALAR"
    }
  ],
  "asset": {
    "extras": {
      "author": "r.mira3 (https://sketchfab.com/r.mira3)",
      "license": "CC-BY-4.0 (http://creativecommons.org/licenses/by/4.0/)",
      "source": "https://sketchfab.com/3d-models/key-texture-811265f3ed6c4f2bab052d55e7fbc583",
      "title": "key_texture"
    },
    "generator": "Sketchfab-8.12.0",
    "version": "2.0"
  },
  "bufferViews": [
    {
      "buffer": 0,
      "byteLength": 24192,
      "byteOffset": 0,
      "name": "floatBufferViews",
      "target": 34963
    },
    {
      "buffer": 0,
      "byteLength": 28240,
      "byteOffset": 24192,
      "byteStride": 8,
      "name": "floatBufferViews",
      "target": 34962
    },
    {
      "buffer": 0,
      "byteLength": 42360,
      "byteOffset": 52432,
      "byteStride": 12,
      "name": "floatBufferViews",
      "target": 34962
    },
    {
      "buffer": 0,
      "byteLength": 28240,
      "byteOffset": 94792,
      "byteStride": 16,
      "name": "floatBufferViews",
      "target": 34962
    }
  ],
  "buffers": [
    {
      "byteLength": 123032,
      "uri": "scene.bin"
    }
  ],
  "images": [
    {
      "uri": "textures/blinn4_baseColor.jpeg"
    },
    {
      "uri": "textures/blinn4_metallicRoughness.png"
    },
    {
      "uri": "textures/blinn4_normal.png"
    }
  ],
  "materials": [
    {
      "doubleSided": true,
      "emissiveFactor": [
        0,
        0,
        0
      ],
      "name": "blinn4",
      "normalTexture": {
        "index": 2,
        "scale": 1,
        "texCoord": 0
      },
      "occlusionTexture": {
        "index": 1,
        "strength": 1,
        "texCoord": 0
      },
      "pbrMetallicRoughness": {
        "baseColorFactor": [
          1,
          1,
          1,
          1
        ],
        "baseColorTexture": {
          "index": 0,
          "texCoord": 0
        },
        "metallicFactor": 1,
        "metallicRoughnessTexture": {
          "index": 1,
          "texCoord": 0
        },
        "roughnessFactor": 1
      }
    }
  ],
  "meshes": [
    {
      "name": "grp3_lo_blinn4_0",
      "primitives": [
        {
          "attributes": {
            "NORMAL": 1,
            "POSITION": 0,
            "TANGENT": 2,
            "TEXCOORD_0": 3,
            "TEXCOORD_1": 4
          },
          "indices": 5,
          "material": 0,
          "mode": 4
        }
      ]
    },
    {
      "name": "grp1_lo_blinn4_0",
      "primitives": [
        {
          "attributes": {
            "NORMAL": 7,
            "POSITION": 6,
            "TANGENT": 8,
            "TEXCOORD_0": 9,
            "TEXCOORD_1": 10
          },
          "indices": 11,
          "material": 0,
          "mode": 4
        }
      ]
    },
    {
      "name": "grp_4lo_blinn4_0",
      "primitives": [
        {
          "attributes": {
            "NORMAL": 13,
            "POSITION": 12,
            "TANGENT": 14,
            "TEXCOORD_0": 15,
            "TEXCOORD_1": 16
          },
          "indices": 17,
          "material": 0,
          "mode": 4
        }
      ]
    },
    {
      "name": "grp2_lo_blinn4_0",
      "primitives": [
        {
          "attributes": {
            "NORMAL": 19,
            "POSITION": 18,
            "TANGENT": 20,
            "TEXCOORD_0": 21,
            "TEXCOORD_1": 22
          },
          "indices": 23,
          "material": 0,
          "mode": 4
        }
      ]
    }
  ],
  "nodes": [
    {
      "children": [
        1
      ],
      "name": "RootNode (gltf orientation matrix)",
      "rotation": [
        -0.70710678118654746,
        -0,
        -0,
        0.70710678118654757
      ]
    },
    {
      "children": [
        2
      ],
      "name": "RootNode (model correction matrix)"
    },
    {
      "children": [
        3
      ],
      "matrix": [
        1,
        0,
        0,
        0,
        0,
        0,
        1,
        0,
        0,
        -1,
        0,
        0,
        0,
        0,
        0,
        1
      ],
      "name": "62b94c131a1347b08568608736a584fe.fbx"
    },
    {
      "children": [
        4
      ],
      "name": "RootNode"
    },
    {
      "children": [
        5,
        7,
        9,
        11
      ],
      "name": "lo_grp"
    },
    {
      "children": [
        6
      ],
      "name": "grp3_lo"
    },
    {
      "mesh": 0,
      "name": "grp3_lo_blinn4_0"
    },
    {
      "children": [
        8
      ],
      "name": "grp1_lo"
    },
    {
      "mesh": 1,
      "name": "grp1_lo_blinn4_0"
    },
    {
      "children": [
        10
      ],
      "name": "grp_4lo"
    },
    {
      "mesh": 2,
      "name": "grp_4lo_blinn4_0"
    },
    {
      "children": [
        12
      ],
      "name": "grp2_lo"
    },
    {
      "mesh": 3,
      "name": "grp2_lo_blinn4_0"
    }
  ],
  "samplers": [
    {
      "magFilter": 9729,
      "minFilter": 9987,
      "wrapS": 10497,
      "wrapT": 10497
    }
  ],
  "scene": 0,
  "scenes": [
    {
      "name": "OSG_Scene",
      "nodes": [
        0
      ]
    }
  ],
  "textures": [
    {
      "sampler": 0,
      "source": 0
    },
    {
      "sampler": 0,
      "source": 1
    },
    {
      "sampler": 0,
      "source": 2
    }
  ]
}

