<svg id="Capa_1" enable-background="new 0 0 1044 1044" height="512" viewBox="0 0 1044 1044" width="512" xmlns="http://www.w3.org/2000/svg"><g><g><path clip-rule="evenodd" d="m801.256 503.835c0-154.251-125.011-279.264-279.256-279.264s-279.256 125.013-279.256 279.264 125.009 279.264 279.256 279.264 279.256-125.013 279.256-279.264z" fill="#eff6ff" fill-rule="evenodd"/></g><g><path clip-rule="evenodd" d="m242.744 503.835c0-154.251 125.011-279.264 279.256-279.264s279.256 125.013 279.256 279.264-125.009 279.264-279.256 279.264-279.256-125.013-279.256-279.264zm535.399-256.149c-141.431-141.493-370.855-141.493-512.343 0-141.431 141.491-141.431 370.865 0 512.357 141.489 141.493 370.912 141.493 512.343 0 141.488-141.492 141.488-370.864 0-512.357z" fill="#fe8d94" fill-rule="evenodd"/></g><g><path d="m986.386 719.841c-2.335 0-4.704-.536-6.925-1.668-7.526-3.831-10.522-13.04-6.69-20.566 54.378-106.831 54.378-280.657 0-387.485-3.831-7.526-.836-16.735 6.69-20.566 7.524-3.829 16.735-.836 20.566 6.69 28.355 55.707 43.972 129.44 43.972 207.617s-15.617 151.91-43.972 207.617c-2.701 5.307-8.07 8.361-13.641 8.361zm-48.574-95.491c-2.335 0-4.702-.536-6.925-1.666-7.526-3.831-10.524-13.04-6.694-20.566 27.576-54.192 27.576-142.369 0-196.564-3.829-7.526-.832-16.735 6.694-20.566s16.735-.832 20.566 6.694c32.001 62.891 32.001 161.418 0 224.307-2.7 5.304-8.073 8.361-13.641 8.361z" fill="#7e707d"/></g><path d="m983.171 774.525c-5.97-4.592-13.766-6.062-21.41-4.031l-84.845 22.542c-13.168 3.497-23.096 16.592-23.096 30.459v15.048 27.576 64.098c-6.843-2.879-14.475-4.496-22.523-4.496-29.285 0-53.111 21.31-53.111 47.504 0 26.196 23.826 47.506 53.111 47.506 29.283 0 53.109-21.31 53.109-47.506 0-.663-.026-1.321-.055-1.978.026-.369.055-.736.055-1.111v-92.259l85.208-22.664c13.166-3.497 23.096-16.59 23.096-30.459v-30.094c-.001-8.135-3.477-15.472-9.539-20.135z" fill="#9fd4fe"/><g><path clip-rule="evenodd" d="m509.47 224.857c125.698 27.234 219.87 139.089 219.87 272.914 0 150.073-118.317 272.455-266.785 279.036 19.167 4.119 39.077 6.293 59.445 6.293 154.247 0 279.256-125.013 279.256-279.264s-125.009-279.265-279.256-279.265c-4.176 0-8.354.114-12.53.286z" fill="#d9eeff" fill-rule="evenodd"/></g><g><path clip-rule="evenodd" d="m642.835 241.622c6.58 6.58 12.873 13.389 18.88 20.368 83.416 48.289 139.543 138.516 139.543 241.845 0 112.312-66.253 209.12-161.798 253.46-56.984 55.556-127.757 88.569-201.105 99.096 118.145 27.921 247.618-4.176 339.787-96.35 141.488-141.493 141.488-370.865 0-512.357-83.875-83.934-198.758-118.09-307.807-102.414 63.222 14.934 123.181 47.033 172.5 96.352z" fill="#ff6d75" fill-rule="evenodd"/></g><g><path clip-rule="evenodd" d="m125.743 69.29 21.17-41.823c2.861-5.607 4.977-5.607 7.838.057l21.17 41.766 41.766 21.17c5.665 2.861 5.665 4.977 0 7.838l-41.768 21.17-21.17 41.766c-2.861 5.665-4.977 5.607-7.838 0l-21.168-41.766-41.766-21.17c-5.607-2.861-5.665-4.977 0-7.838z" fill="#fde588" fill-rule="evenodd"/></g><g><path d="m819.567 141.284h-15.22c-8.448 0-15.293-6.845-15.293-15.293s6.845-15.293 15.293-15.293h15.22c8.448 0 15.293 6.845 15.293 15.293s-6.848 15.293-15.293 15.293z" fill="#fe8d94"/></g><g><path d="m902.983 141.284h-15.22c-8.448 0-15.293-6.845-15.293-15.293s6.845-15.293 15.293-15.293h15.22c8.448 0 15.293 6.845 15.293 15.293s-6.848 15.293-15.293 15.293z" fill="#fe8d94"/></g><g><path d="m853.664 190.604c-8.448 0-15.293-6.845-15.293-15.293v-15.22c0-8.448 6.845-15.293 15.293-15.293s15.293 6.845 15.293 15.293v15.22c0 8.446-6.845 15.293-15.293 15.293z" fill="#fe8d94"/></g><g><path d="m853.664 107.182c-8.448 0-15.293-6.845-15.293-15.293v-15.219c0-8.448 6.845-15.293 15.293-15.293s15.293 6.845 15.293 15.293v15.22c0 8.447-6.845 15.292-15.293 15.292z" fill="#fe8d94"/></g><g><path d="m239.653 897.032h-15.218c-8.446 0-15.293-6.845-15.293-15.293s6.847-15.293 15.293-15.293h15.218c8.446 0 15.293 6.845 15.293 15.293 0 8.447-6.847 15.293-15.293 15.293z" fill="#fe8d94"/></g><g><path d="m156.237 897.032h-15.217c-8.446 0-15.293-6.845-15.293-15.293s6.847-15.293 15.293-15.293h15.218c8.446 0 15.293 6.845 15.293 15.293-.001 8.447-6.848 15.293-15.294 15.293z" fill="#fe8d94"/></g><g><path d="m190.336 862.93c-8.446 0-15.293-6.845-15.293-15.293v-15.275c0-8.448 6.847-15.293 15.293-15.293s15.293 6.845 15.293 15.293v15.275c0 8.448-6.847 15.293-15.293 15.293z" fill="#fe8d94"/></g><g><path d="m190.336 946.348c-8.446 0-15.293-6.845-15.293-15.293v-15.218c0-8.448 6.847-15.293 15.293-15.293s15.293 6.845 15.293 15.293v15.218c0 8.448-6.847 15.293-15.293 15.293z" fill="#fe8d94"/></g><path d="m644.597 385.337c-.426-7.029-3.589-13.513-8.886-17.964-5.917-4.975-13.933-7.02-22.038-5.612l-139.903 24.824c-14.414 2.516-25.706 15.619-25.706 29.827v128.828c-8.776-2.539-18.725-2.963-29.018-1.058-30.311 5.591-54.056 29.387-54.056 54.172 0 11.355 4.871 21.665 13.713 29.024 8.652 7.202 20.342 11.003 33.21 11.003 4.125 0 8.376-.389 12.683-1.187 30.311-5.591 54.056-29.387 54.056-54.172v-111.396l135.447-24.036v33.791c-8.762-2.535-18.688-2.955-28.963-1.052-30.309 5.591-54.053 29.387-54.053 54.172 0 11.356 4.871 21.665 13.715 29.024 8.65 7.202 20.34 11.003 33.208 11.003 4.127 0 8.379-.392 12.689-1.187 30.276-5.601 53.992-29.395 53.992-54.172v-132.223c-.005-.543-.035-1.079-.09-1.609z" fill="#9fd4fe"/><g><path d="m57.614 719.841c-5.571 0-10.942-3.055-13.641-8.36-28.356-55.707-43.973-129.44-43.973-207.617s15.617-151.91 43.972-207.617c3.833-7.528 13.04-10.52 20.566-6.69 7.526 3.831 10.524 13.04 6.692 20.566-54.378 106.831-54.378 280.657 0 387.485 3.831 7.526.836 16.734-6.692 20.566-2.22 1.131-4.592 1.667-6.924 1.667zm48.517-95.491c-5.575 0-10.95-3.061-13.647-8.37-31.938-62.883-31.938-161.4 0-224.287 3.823-7.528 13.028-10.534 20.56-6.711 7.53 3.825 10.536 13.032 6.711 20.562-27.527 54.198-27.527 142.388 0 196.584 3.823 7.53.82 16.737-6.711 20.56-2.219 1.128-4.584 1.662-6.913 1.662z" fill="#7e707d"/></g></g></svg>